<?xml version="1.0" encoding="UTF-8" standalone="no"?>
<!-- Generator: Adobe Illustrator 26.0.1, SVG Export Plug-In . SVG Version: 6.00 Build 0)  -->

<svg
   version="1.1"
   id="Ebene_1"
   x="0px"
   y="0px"
   viewBox="0 0 1618 295.00001"
   xml:space="preserve"
   width="1618"
   height="295"
   xmlns:xlink="http://www.w3.org/1999/xlink"
   xmlns="http://www.w3.org/2000/svg"
   xmlns:svg="http://www.w3.org/2000/svg"><defs
   id="defs18" />
<style
   type="text/css"
   id="style1">
	.st0{clip-path:url(#SVGID_00000079480522326194081930000018081174236398637971_);fill:#020203;}
	.st1{clip-path:url(#SVGID_00000079480522326194081930000018081174236398637971_);fill:#E20E18;}
	
		.st2{clip-path:url(#SVGID_00000079480522326194081930000018081174236398637971_);fill:none;stroke:#020203;stroke-width:6.800000e-02;stroke-miterlimit:3.864;}
</style>
<g
   id="g18"
   transform="matrix(10,0,0,10,-10,0)">
	<defs
   id="defs1"><rect
     id="SVGID_1_"
     x="1"
     width="185.10001"
     height="29.5"
     y="0" /></defs>
	<clipPath
   id="SVGID_00000056417108054105291520000000487238329353550520_">
		<use
   xlink:href="#SVGID_1_"
   style="overflow:visible"
   id="use1" />
	</clipPath>
	<path
   style="fill:#020203"
   d="m 9.2,21 c 0,4.2 -1.4,5.9 -4.9,5.9 H 1 V 22.4 H 1.5 C 3,22.4 3.4,22 3.4,20.3 V 5.4 h 5.8 z"
   clip-path="url(#SVGID_00000056417108054105291520000000487238329353550520_)"
   id="path1" />
	<path
   style="fill:#020203"
   d="m 18.6,4.9 c -5.1,0 -8.1,3.1 -8.1,8.2 0,5.1 3.1,8.2 8.1,8.2 5.1,0 8.1,-3.1 8.1,-8.2 0,-5.1 -3,-8.2 -8.1,-8.2 m 0,12.2 c -1.7,0 -2.4,-1.3 -2.4,-4 0,-2.7 0.6,-4 2.4,-4 1.7,0 2.4,1.2 2.4,4 0,2.7 -0.7,4 -2.4,4"
   clip-path="url(#SVGID_00000056417108054105291520000000487238329353550520_)"
   id="path2" />
	<path
   style="fill:#020203"
   d="M 37.6,5 C 36,5 34.6,5.7 33.5,7 V 0 H 27.9 V 20.7 H 33 v -1.9 c 1.2,1.6 2.8,2.4 4.7,2.4 3.6,0 6.2,-3.1 6.2,-8.1 C 43.9,8.2 41.3,5 37.6,5 m -1.8,11.8 c -1.4,0 -2.4,-1.3 -2.4,-3.5 0,-2.4 0.8,-3.5 2.4,-3.5 1.6,0 2.3,1.2 2.3,3.5 0,2.2 -0.9,3.5 -2.3,3.5"
   clip-path="url(#SVGID_00000056417108054105291520000000487238329353550520_)"
   id="path3" />
	<path
   style="fill:#020203"
   d="m 76.6,14.1 c 0,-5.8 -3.1,-9.2 -8.2,-9.2 -5.1,0 -8.3,3.2 -8.3,8.3 0,4.9 3.1,8.1 8.1,8.1 4.5,0 7.2,-1.8 8,-5.1 h -5.5 c -0.3,0.8 -1,1.3 -2.1,1.3 -1.7,0 -2.6,-1.1 -2.7,-3.1 H 76.6 Z M 65.8,11.4 c 0.1,-1.8 1,-2.9 2.5,-2.9 1.6,0 2.5,1 2.6,2.9 z"
   clip-path="url(#SVGID_00000056417108054105291520000000487238329353550520_)"
   id="path4" />
	<path
   style="fill:#020203"
   d="m 78.1,5.4 h 5.2 v 2.2 c 1.3,-1.8 3,-2.7 5,-2.7 1.8,0 3.1,0.6 4.1,1.8 1.1,1.4 1.2,3.3 1.2,5.9 v 8 h -5.7 v -7.9 c 0,-2.1 -0.4,-3.1 -2,-3.1 -1.4,0 -2.1,1 -2.1,3.1 v 7.9 h -5.7 z"
   clip-path="url(#SVGID_00000056417108054105291520000000487238329353550520_)"
   id="path5" />
	<path
   style="fill:#020203"
   d="m 104.8,16.5 c 0.2,0 0.5,0 0.8,0 v 4.4 C 104.4,21 103.2,21 102,21 98.4,21 97.1,19.9 97.1,16.6 V 8.9 h -2 V 5.4 h 2 V 0.7 h 5.7 v 4.7 h 2.7 v 3.5 h -2.7 V 15 c 0,1.2 0.6,1.5 2,1.5"
   clip-path="url(#SVGID_00000056417108054105291520000000487238329353550520_)"
   id="path6" />
	<path
   style="fill:#020203"
   d="m 123.2,14.1 c 0,-5.8 -3.1,-9.2 -8.2,-9.2 -5.1,0 -8.3,3.2 -8.3,8.3 0,4.9 3.1,8.1 8.1,8.1 4.5,0 7.2,-1.8 8,-5.1 h -5.5 c -0.3,0.8 -1,1.3 -2.1,1.3 -1.7,0 -2.6,-1.1 -2.7,-3.1 h 10.7 z m -10.8,-2.7 c 0.1,-1.8 1,-2.9 2.5,-2.9 1.6,0 2.5,1 2.6,2.9 z"
   clip-path="url(#SVGID_00000056417108054105291520000000487238329353550520_)"
   id="path7" />
	<path
   style="fill:#020203"
   d="M 124.7,5.4 H 130 V 8.2 C 130.8,5.9 132.1,5 134.5,5 h 0.5 v 6.1 C 134.6,11 134.2,11 133.8,11 c -2.3,0 -3.4,1.1 -3.4,3.4 v 6.3 h -5.8 V 5.4 Z"
   clip-path="url(#SVGID_00000056417108054105291520000000487238329353550520_)"
   id="path8" />
	<path
   style="fill:#020203"
   d="m 53.3,14.8 c -0.1,1.5 -0.9,2.3 -2.2,2.3 -1.7,0 -2.4,-1.3 -2.4,-4 0,-2.7 0.7,-4 2.4,-4 1.3,0 2,0.7 2.1,2.1 H 59 C 58.9,7.4 55.9,4.8 51.2,4.8 c -3.2,0 -5.7,1.3 -7,3.5 0.6,1.4 0.9,3 0.9,4.8 0,1.8 -0.3,3.4 -0.9,4.7 1.4,2.2 3.8,3.4 7,3.4 4.6,0 7.6,-2.5 7.8,-6.5 h -5.7 z"
   clip-path="url(#SVGID_00000056417108054105291520000000487238329353550520_)"
   id="path9" />
	
	<path
   style="fill:#e20e18"
   d="m 138.2,17.2 c 0,-6.8 5.5,-12.3 12.3,-12.3 6.8,0 12.3,5.5 12.3,12.3 0,6.8 -5.5,12.3 -12.3,12.3 -3,0 -5.8,-1.1 -7.9,-2.9 2,-3.3 7.9,-13.2 7.9,-13.2 l 2.9,4.9 c 0,0 -1.5,0 -2.9,0 -1.4,0 -1.8,0.3 -2.4,1.2 -0.5,0.8 -1.7,2.8 -1.7,2.8 -0.1,0.2 -0.1,0.4 0.3,0.4 h 9.4 4.8 c 0.3,0 0.4,-0.2 0.3,-0.4 l -10.4,-17 c -0.1,-0.2 -0.4,-0.2 -0.5,0 L 139.7,23 c -0.9,-1.7 -1.5,-3.7 -1.5,-5.8"
   clip-path="url(#SVGID_00000056417108054105291520000000487238329353550520_)"
   id="path11" />
	
	
	
	
		
	
	
		
	
</g>
</svg>
